PathFileType	3	(X/Y/Z)	F:\ViconData\AntennenMessung\Messung1\Session1\ID16.trc
DataRate	CameraRate	NumFrames	NumMarkers	Units	OrigDataRate	OrigDataStartFrame	OrigNumFrames
120.0	120.0	4	70	mm	120.0	113	900	
Frame#	Time	Ashort			Along			Atop			A4			Bshort			Blong			Btop			B4			Cshort			Clong			Ctop			C4			Dshort			Dlong			Dtop			D4			Eshort			Elong			Etop			E4			Fshort			Flong			Ftop			F4			Gshort			Glong			Gtop			G4			Hshort			Hlong			Htop			H4			I1			I2			I3			I4			I5			WandAshort			WandAlong			WandAtop			WandA4			WandA15			WandBshort			WandB4			WandB5			WandBtop			WandBlong			WandCshort			WandClong			WandCtop			WandC4			WandC5			Acenter			Aantenna			Bcenter			Bantenna			Ccenter			Cantenna			Dcenter			Dantenna			Ecenter			Eantenna			Fcenter			Fantenna			Gcenter			Gantenna			Hcenter			Hantenna			Icenter			Iantenna			
		X1	Y1	Z1	X2	Y2	Z2	X3	Y3	Z3	X4	Y4	Z4	X5	Y5	Z5	X6	Y6	Z6	X7	Y7	Z7	X8	Y8	Z8	X9	Y9	Z9	X10	Y10	Z10	X11	Y11	Z11	X12	Y12	Z12	X13	Y13	Z13	X14	Y14	Z14	X15	Y15	Z15	X16	Y16	Z16	X17	Y17	Z17	X18	Y18	Z18	X19	Y19	Z19	X20	Y20	Z20	X21	Y21	Z21	X22	Y22	Z22	X23	Y23	Z23	X24	Y24	Z24	X25	Y25	Z25	X26	Y26	Z26	X27	Y27	Z27	X28	Y28	Z28	X29	Y29	Z29	X30	Y30	Z30	X31	Y31	Z31	X32	Y32	Z32	X33	Y33	Z33	X34	Y34	Z34	X35	Y35	Z35	X36	Y36	Z36	X37	Y37	Z37	X38	Y38	Z38	X39	Y39	Z39	X40	Y40	Z40	X41	Y41	Z41	X42	Y42	Z42	X43	Y43	Z43	X44	Y44	Z44	X45	Y45	Z45	X46	Y46	Z46	X47	Y47	Z47	X48	Y48	Z48	X49	Y49	Z49	X50	Y50	Z50	X51	Y51	Z51	X52	Y52	Z52	X53	Y53	Z53	X54	Y54	Z54	X55	Y55	Z55	X56	Y56	Z56	X57	Y57	Z57	X58	Y58	Z58	X59	Y59	Z59	X60	Y60	Z60	X61	Y61	Z61	X62	Y62	Z62	X63	Y63	Z63	X64	Y64	Z64	X65	Y65	Z65	X66	Y66	Z66	X67	Y67	Z67	X68	Y68	Z68	X69	Y69	Z69	X70	Y70	Z70	
113	0.93333333	-1038.2162	214.55534	-1644.1625	-1109.3781	204.12367	-1599.2749	-1063.5627	172.81686	-1626.2841	-1054.1619	262.26389	-1634.9513	-1352.9822	234.91316	1003.7468	-1281.3644	227.215	1052.3359	-1322.7329	193.91647	1020.9048	-1284.5828	287.98083	1052.7494	813.89923	187.65497	1209.4786	892.07959	178.4196	1179.2749	844.33972	145.66045	1198.2838	860.67786	292.80191	1167.5398	1115.7271	209.6432	-1401.5938	1056.192	194.06163	-1460.2184	1095.0547	162.54082	-1423.8292	1069.9434	238.97757	-1425.6978	-1204.5464	1685.9623	-1563.1904	-1129.1317	1688.3469	-1606.2189	-1173.14	1724.4243	-1581.9396	-1134.037	1580.9924	-1603.8361	-1239.5959	1699.1039	1119.4603	-1309.1523	1698.463	1071.8141	-1270.4431	1736.3387	1096.8906	-1245.6382	1592.8779	1110.7194	988.86676	1664.2854	1162.1969	957.43274	1700.3748	1183.8108	922.6861	1662.0159	1214.9525	939.75562	1659.4392	1159.8892	999.04907	1668.4453	-1579.3838	1058.8651	1670.1541	-1518.6154	1024.9701	1708.0326	-1551.0968	1059.2532	1672.1603	-1585.4438	-147.06842	1161.293	-186.64328	-232.22197	1160.6884	-187.85115	-185.29355	1198.3595	-188.52135	-184.15926	1159.2126	-218.97075	-185.47841	1163.7029	-139.94057																																														-1068.3298	210.14096	-1625.1674	-1073.2686	248.80968	-1624.0106	-1321.5272	231.53209	1025.0873	-1320.2855	270.27356	1029.395	848.05145	183.62059	1196.2844	851.84161	222.38226	1194.2428	1088.7931	202.59399	-1428.1158	1082.8027	240.91237	-1432.217	-1171.8899	1686.9948	-1581.8228	-1170.5881	1648.0168	-1581.7012	-1270.8788	1698.8156	1098.0314	-1271.3315	1659.8362	1099.2166	953.08997	1705.3604	1186.7968	972.86383	1733.5505	1168.4852	1026.4919	1669.2292	-1551.5038	1028.0205	1630.2615	-1551.9126	-185.0475	1161.0233	-187.18198	-184.79066	1122.0492	-185.78387
114	0.94166667	-1038.1973	214.56499	-1644.1465	-1109.3907	204.12575	-1599.3014	-1063.5887	172.8405	-1626.0486	-1054.1781	262.24933	-1634.9384	-1352.933	234.97968	1003.5902	-1281.385	227.15251	1052.4086	-1322.9116	193.79138	1020.9709	-1284.5414	288.04761	1052.625	814.03333	187.53281	1209.4591	892.09174	178.51936	1179.2847	844.28998	145.60461	1198.2859	860.75555	292.8161	1167.889	1115.7875	209.92751	-1401.7568	1056.204	194.04536	-1460.2218	1095.036	162.41063	-1423.8612	1069.8358	238.87074	-1425.8027	-1204.5508	1685.9485	-1563.178	-1129.1233	1688.3314	-1606.2169	-1173.1414	1724.439	-1581.9413	-1134.0281	1580.9921	-1603.8586	-1239.6073	1699.123	1119.4745	-1309.1881	1698.5424	1071.8297	-1270.4287	1736.2993	1096.8799	-1245.6283	1592.8265	1110.6932	988.87762	1664.2687	1162.2196	957.38464	1700.4725	1183.7556	922.42529	1662.0859	1214.8766	939.78278	1659.3945	1159.9261	999.04553	1668.4448	-1579.3904	1058.7317	1669.9844	-1518.6328	1024.9579	1708.0327	-1551.0889	1059.2526	1672.1646	-1585.4338	-147.06628	1161.2938	-186.64511	-232.2357	1160.7106	-187.84782	-185.29062	1198.3506	-188.52338	-184.19655	1159.3385	-218.98814	-185.4711	1163.6866	-139.93298																																														-1068.4519	210.12868	-1625.0889	-1073.4939	248.78857	-1624.0939	-1321.5382	231.54515	1025.0114	-1320.1284	270.2984	1029.1587	847.93286	183.61841	1196.3547	851.64856	222.39099	1194.385	1088.6927	202.70534	-1428.3428	1082.6644	241.00047	-1432.6019	-1171.8866	1686.9802	-1581.816	-1170.5808	1648.0024	-1581.6858	-1270.9105	1698.8617	1098.0399	-1271.4122	1659.8837	1099.2477	953.04205	1705.4646	1186.7251	972.91101	1733.6155	1168.4563	1026.4122	1669.1508	-1551.5322	1027.87	1630.1804	-1551.9768	-185.054	1161.0337	-187.18153	-184.8069	1122.0597	-185.78011
115	0.95	-1038.2069	214.54652	-1644.1549	-1109.3871	204.11436	-1599.2826	-1063.743	173.06987	-1626.0988	-1054.1754	262.25824	-1634.9451	-1352.9628	235.11305	1003.7313	-1281.3253	227.23549	1052.4368	-1322.7618	193.94835	1020.8762	-1284.5687	287.95261	1052.7556	813.89185	187.51122	1209.4282	892.05054	178.42883	1179.2804	844.32367	145.6562	1198.2639	860.6347	292.8663	1167.5645	1115.7283	209.64767	-1401.5834	1056.1803	194.07292	-1460.2114	1095.1045	162.57112	-1423.7664	1069.848	238.83115	-1425.7961	-1204.5514	1685.9565	-1563.1793	-1129.1199	1688.3423	-1606.2308	-1173.1428	1724.4369	-1581.9456	-1134.0447	1581.0059	-1603.8505	-1239.2506	1698.6213	1119.3123	-1309.3158	1698.7378	1071.9031	-1270.4271	1736.3058	1096.8816	-1245.5924	1592.7698	1110.6758	988.84583	1664.2611	1162.2356	957.40851	1700.4203	1183.7914	922.63721	1662.0344	1214.9395	939.82355	1659.3834	1159.9758	999.03772	1668.4678	-1579.4192	1058.8627	1670.1716	-1518.6169	1024.9648	1708.0399	-1551.0914	1059.2455	1672.1576	-1585.4332	-147.05603	1161.2943	-186.64676	-232.24335	1160.7162	-187.85202	-185.29372	1198.348	-188.5195	-184.07942	1159.4308	-219.28786	-185.49527	1163.7135	-139.93645																																														-1068.5105	210.10521	-1625.0513	-1073.4882	248.77081	-1623.9578	-1321.5017	231.65347	1025.1211	-1320.2074	270.38727	1029.4819	847.96423	183.55185	1196.2855	851.68872	222.3208	1194.2617	1088.847	202.6169	-1428.0491	1082.8594	240.93602	-1432.1472	-1171.8877	1686.9896	-1581.8217	-1170.5813	1648.0117	-1581.6929	-1271.0897	1698.6742	1097.7686	-1271.7761	1659.691	1098.6874	953.1203	1705.3524	1186.7317	972.93054	1733.5038	1168.4	1026.4967	1669.2496	-1551.5116	1028.0355	1630.2823	-1551.9337	-185.05934	1161.0364	-187.18443	-184.81451	1122.0621	-185.78989
116	0.95833333	-1038.2153	214.57445	-1644.1718	-1109.3718	204.14622	-1599.3118	-1063.6224	172.83917	-1626.2903	-1054.1637	262.17853	-1634.9041	-1352.8503	235.01828	1003.6542	-1281.3668	227.25023	1052.3671	-1322.9308	193.79048	1020.9951	-1284.5957	287.93781	1052.7404	813.96643	187.49849	1209.4144	892.14764	178.57663	1179.2904	844.2876	145.65318	1198.2816	860.78015	292.67615	1167.797	1115.7781	209.94684	-1401.776	1056.2379	194.05969	-1460.2238	1095.0414	162.4734	-1423.8044	1069.8091	238.79987	-1425.7731	-1204.5532	1685.9541	-1563.167	-1129.1049	1688.283	-1606.0077	-1173.14	1724.4233	-1581.9473	-1134.0428	1581.0084	-1603.8652	-1239.5336	1699.0168	1119.4347	-1309.1757	1698.4783	1071.8208	-1270.444	1736.3163	1096.8832	-1245.6561	1592.9309	1110.7256	988.90002	1664.2963	1162.229	957.37463	1700.416	1183.7871	922.62762	1662.049	1214.9803	939.77191	1659.3835	1159.9281	999.03668	1668.4851	-1579.4261	1058.874	1670.1759	-1518.6283	1024.9601	1708.0432	-1551.0996	1059.2458	1672.1722	-1585.436	-147.04901	1161.2888	-186.62938	-232.24042	1160.7043	-187.85727	-185.3622	1198.4518	-188.52917	-184.17976	1159.2266	-218.84932	-185.49016	1163.6993	-139.92271																																														-1068.3765	210.15421	-1625.1567	-1073.3031	248.82394	-1623.9821	-1321.5422	231.61604	1024.9893	-1320.1194	270.3746	1029.082	847.87634	183.62877	1196.3485	851.54102	222.40601	1194.3746	1088.735	202.73093	-1428.3228	1082.736	241.02631	-1432.6211	-1171.8606	1686.9631	-1581.7302	-1170.5294	1647.9866	-1581.5046	-1270.9069	1698.774	1097.9849	-1271.3875	1659.7938	1099.1288	953.01556	1705.4102	1186.7679	972.76898	1733.5967	1168.4288	1026.4924	1669.2609	-1551.5295	1028.0323	1630.2936	-1551.9614	-185.12492	1161.0276	-187.17818	-184.87781	1122.0537	-185.77122
